<svg width="16" height="16" viewBox="0 0 16 16" fill="none" xmlns="http://www.w3.org/2000/svg">
<path fill-rule="evenodd" clip-rule="evenodd" d="M14.7888 5.98897C14.7444 5.98683 14.6999 5.98607 14.6554 5.98669H12.8002C11.2826 5.98669 9.98279 7.19123 9.98279 8.76224C9.98279 10.3333 11.2826 11.5378 12.801 11.5378H14.6547C14.7012 11.5378 14.7461 11.5378 14.788 11.5347C15.1013 11.5147 15.3966 11.3815 15.6189 11.1599C15.8412 10.9383 15.9754 10.6434 15.9964 10.3302C15.9994 10.2853 15.9994 10.2373 15.9994 10.1931V7.33142C15.9994 7.28723 15.9994 7.23923 15.9964 7.19428C15.9754 6.8812 15.8413 6.58641 15.6192 6.36481C15.397 6.14322 15.1019 6.00992 14.7888 5.98974V5.98897ZM12.638 9.50203C13.0288 9.50203 13.3465 9.17138 13.3465 8.76224C13.3465 8.35311 13.0288 8.02245 12.638 8.02245C12.2471 8.02245 11.9302 8.35311 11.9302 8.76224C11.9302 9.17138 12.2464 9.50203 12.638 9.50203Z" fill="#939393"/>
<path fill-rule="evenodd" clip-rule="evenodd" d="M14.6549 12.6477C14.6805 12.6468 14.7058 12.6519 14.729 12.6626C14.7522 12.6733 14.7726 12.6894 14.7884 12.7094C14.8043 12.7294 14.8152 12.7529 14.8204 12.7779C14.8255 12.8029 14.8247 12.8288 14.818 12.8534C14.6702 13.3806 14.4363 13.8302 14.0607 14.2081C13.5114 14.7619 12.8142 15.008 11.9533 15.1246C11.1167 15.2381 10.0486 15.2381 8.69851 15.2381H7.14655C5.79724 15.2381 4.72832 15.2381 3.89177 15.1246C3.03083 15.008 2.33371 14.7619 1.78439 14.2081C1.23507 13.6549 0.991261 12.9525 0.875455 12.0847C0.762695 11.2413 0.762695 10.164 0.762695 8.80399V8.72018C0.762695 7.36021 0.762695 6.28214 0.875455 5.43949C0.991261 4.5717 1.23507 3.87077 1.78362 3.31535C2.33294 2.76222 3.03007 2.51537 3.891 2.39956C4.72832 2.28604 5.79724 2.28604 7.14655 2.28604H8.69851C10.0478 2.28604 11.1167 2.28604 11.9533 2.39956C12.8142 2.51613 13.5114 2.76222 14.0607 3.31535C14.4363 3.69401 14.6702 4.14352 14.818 4.67151C14.8245 4.69611 14.8252 4.7219 14.82 4.74682C14.8148 4.77174 14.8039 4.79509 14.788 4.81501C14.7722 4.83493 14.7519 4.85087 14.7288 4.86154C14.7057 4.87221 14.6804 4.87732 14.6549 4.87646H12.8013C10.7183 4.87646 8.88289 6.53509 8.88289 8.76208C8.88289 10.9891 10.719 12.6477 12.802 12.6477H14.6549ZM3.51615 5.24673C3.44362 5.24703 3.37185 5.26162 3.30495 5.28965C3.23804 5.31769 3.17732 5.35863 3.12624 5.41013C3.07516 5.46164 3.03472 5.5227 3.00724 5.58983C2.97976 5.65696 2.96577 5.72885 2.96607 5.80139C2.96607 6.10843 3.21216 6.3568 3.51615 6.3568H6.45399C6.75875 6.3568 7.00484 6.10843 7.00484 5.80139C7.00524 5.65482 6.94746 5.51408 6.84417 5.41009C6.74089 5.30609 6.60056 5.24734 6.45399 5.24673H3.51615Z" fill="#939393"/>
<path d="M5.16443 1.54251L6.6562 0.443104C7.04548 0.155312 7.51682 0 8.00093 0C8.48504 0 8.95639 0.155312 9.34566 0.443104L10.8458 1.5486C10.218 1.52422 9.51709 1.52422 8.74987 1.52422H7.09657C6.39411 1.52422 5.7488 1.52422 5.16443 1.54251Z" fill="#939393"/>
<circle cx="3.81017" cy="12.1906" r="3.80944" fill="white"/>
<path d="M3.81017 15.2381C5.48632 15.2381 6.85772 13.8667 6.85772 12.1906C6.85772 10.5144 5.48632 9.14302 3.81017 9.14302C2.13402 9.14302 0.762619 10.5144 0.762619 12.1906C0.762619 13.8667 2.13402 15.2381 3.81017 15.2381ZM3.81017 8.38113C5.90536 8.38113 7.6196 10.0954 7.6196 12.1906C7.6196 14.2858 5.90536 16 3.81017 16C1.71498 16 0.000732422 14.2858 0.000732422 12.1906C0.000732422 10.0954 1.71498 8.38113 3.81017 8.38113ZM4.00064 10.2859V12.5715H3.42922L2.47687 10.8954L2.97209 10.5906L3.42922 11.4287V10.2859H4.00064Z" fill="#939393"/>
</svg>
