<svg width="16" height="16" viewBox="0 0 16 16" fill="none" xmlns="http://www.w3.org/2000/svg">
<path fill-rule="evenodd" clip-rule="evenodd" d="M14.728 6.28841C14.6814 6.28617 14.6347 6.28537 14.588 6.28601H12.6401C11.0465 6.28601 9.68176 7.55078 9.68176 9.20033C9.68176 10.8499 11.0465 12.1146 12.6409 12.1146H14.5872C14.636 12.1146 14.6832 12.1146 14.7272 12.1114C15.0561 12.0904 15.3662 11.9506 15.5996 11.7179C15.8331 11.4852 15.9739 11.1755 15.996 10.8467C15.9992 10.7995 15.9992 10.7491 15.9992 10.7027V7.69797C15.9992 7.65157 15.9992 7.60118 15.996 7.55398C15.974 7.22524 15.8332 6.91572 15.5999 6.68304C15.3667 6.45037 15.0568 6.3104 14.728 6.28921V6.28841ZM12.4697 9.97711C12.8801 9.97711 13.2137 9.62992 13.2137 9.20033C13.2137 8.77074 12.8801 8.42355 12.4697 8.42355C12.0593 8.42355 11.7265 8.77074 11.7265 9.20033C11.7265 9.62992 12.0585 9.97711 12.4697 9.97711Z" fill="#51B15C"/>
<path fill-rule="evenodd" clip-rule="evenodd" d="M14.5876 13.28C14.6144 13.2791 14.6411 13.2845 14.6654 13.2957C14.6898 13.307 14.7111 13.3238 14.7278 13.3448C14.7444 13.3658 14.7559 13.3904 14.7613 13.4167C14.7667 13.443 14.7659 13.4702 14.7588 13.496C14.6036 14.0496 14.358 14.5216 13.9636 14.9184C13.3869 15.5 12.6549 15.7584 11.7509 15.8808C10.8725 16 9.75097 16 8.33341 16H6.70386C5.2871 16 4.16473 16 3.28636 15.8808C2.38238 15.7584 1.65041 15.5 1.07362 14.9184C0.49684 14.3376 0.240847 13.6 0.119251 12.6889C0.000854492 11.8033 0.000854492 10.6721 0.000854492 9.24416V9.15616C0.000854492 7.7282 0.000854492 6.59624 0.119251 5.71146C0.240847 4.80029 0.49684 4.06431 1.07282 3.48113C1.64961 2.90035 2.38158 2.64115 3.28556 2.51956C4.16473 2.40036 5.2871 2.40036 6.70386 2.40036H8.33341C9.75017 2.40036 10.8725 2.40036 11.7509 2.51956C12.6549 2.64195 13.3869 2.90035 13.9636 3.48113C14.358 3.87872 14.6036 4.3507 14.7588 4.90509C14.7657 4.93091 14.7664 4.95799 14.761 4.98416C14.7555 5.01032 14.744 5.03485 14.7274 5.05576C14.7107 5.07668 14.6894 5.09341 14.6652 5.10461C14.6409 5.11582 14.6143 5.12118 14.5876 5.12028H12.6413C10.4541 5.12028 8.527 6.86183 8.527 9.20016C8.527 11.5385 10.4549 13.28 12.6421 13.28H14.5876ZM2.89197 5.50907C2.8158 5.50938 2.74045 5.5247 2.6702 5.55413C2.59996 5.58357 2.53619 5.62656 2.48256 5.68064C2.42893 5.73472 2.38647 5.79883 2.35762 5.86932C2.32876 5.93981 2.31407 6.01529 2.31439 6.09145C2.31439 6.41384 2.57278 6.67463 2.89197 6.67463H5.97668C6.29667 6.67463 6.55506 6.41384 6.55506 6.09145C6.55549 5.93756 6.49481 5.78978 6.38637 5.68059C6.27792 5.57139 6.13057 5.5097 5.97668 5.50907H2.89197Z" fill="#51B15C"/>
<path d="M4.62256 1.61965L6.18891 0.465287C6.59765 0.163107 7.09256 3.05176e-05 7.60087 3.05176e-05C8.10918 3.05176e-05 8.60409 0.163107 9.01283 0.465287L10.588 1.62605C9.9288 1.60045 9.19282 1.60045 8.38725 1.60045H6.6513C5.91372 1.60045 5.23614 1.60045 4.62256 1.61965Z" fill="#51B15C"/>
</svg>
