<svg width="23" height="24" viewBox="0 0 23 24" fill="none" xmlns="http://www.w3.org/2000/svg">
<rect width="22.8" height="24" rx="11.4" fill="#FF1D1D"/>
<path d="M15.5634 10.0183C15.6831 10.0183 15.7916 10.0705 15.8774 10.1587C15.9573 10.2529 15.9976 10.3699 15.9859 10.4935C15.9859 10.5343 15.6661 14.5782 15.4835 16.2804C15.3691 17.325 14.6957 17.9592 13.6856 17.9766C12.909 17.994 12.1498 18 11.4023 18C10.6087 18 9.83258 17.994 9.07924 17.9766C8.10299 17.9532 7.42901 17.3076 7.32047 16.2804C7.13258 14.5722 6.81864 10.5343 6.8128 10.4935C6.80697 10.3699 6.84665 10.2529 6.92717 10.1587C7.00653 10.0705 7.12091 10.0183 7.24111 10.0183H15.5634ZM12.6388 6C13.1693 6 13.6431 6.3702 13.7802 6.89819L13.8783 7.33619C13.9576 7.69318 14.2669 7.94578 14.6228 7.94578H16.3723C16.6057 7.94578 16.8 8.13958 16.8 8.38618V8.61417C16.8 8.85477 16.6057 9.05457 16.3723 9.05457H6.42831C6.19432 9.05457 6 8.85477 6 8.61417V8.38618C6 8.13958 6.19432 7.94578 6.42831 7.94578H8.17774C8.53311 7.94578 8.84238 7.69318 8.92233 7.33679L9.01394 6.92759C9.15632 6.3702 9.6249 6 10.1612 6H12.6388Z" fill="white"/>
</svg>
