<svg width="24" height="24" viewBox="0 0 24 24" fill="none" xmlns="http://www.w3.org/2000/svg">
<rect width="24" height="24" rx="12" fill="#CF8812"/>
<path d="M14.7992 6.0062C15.6623 5.95226 16.5134 6.25195 17.1548 6.83934C17.7422 7.48068 18.0418 8.3318 17.9939 9.2009V14.7991C18.0478 15.6682 17.7422 16.5193 17.1608 17.1607C16.5194 17.7481 15.6623 18.0477 14.7992 17.9938H9.20092C8.33181 18.0477 7.48069 17.7481 6.83935 17.1607C6.25195 16.5193 5.95226 15.6682 6.0062 14.7991V9.2009C5.95226 8.3318 6.25195 7.48068 6.83935 6.83934C7.48069 6.25195 8.33181 5.95226 9.20092 6.0062H14.7992ZM14.6433 8.74537C14.2717 8.37375 13.6723 8.37375 13.3007 8.74537L12.8991 9.15295C12.8392 9.21288 12.8392 9.31478 12.8991 9.37472C12.8991 9.37472 12.9109 9.38641 12.9318 9.40723L13.0793 9.55385C13.1645 9.6387 13.271 9.74467 13.3779 9.85122L13.7403 10.2135C13.816 10.2895 13.8661 10.3404 13.8701 10.3457C13.9361 10.4176 13.978 10.5135 13.978 10.6214C13.978 10.8372 13.8042 11.017 13.5824 11.017C13.4805 11.017 13.3846 10.9751 13.3187 10.9091L12.3177 9.91416C12.2698 9.86621 12.1859 9.86621 12.1379 9.91416L9.27884 12.7732C9.08104 12.971 8.96716 13.2347 8.96117 13.5164L8.9252 14.937C8.9252 15.0149 8.94918 15.0868 9.00312 15.1408C9.05707 15.1947 9.129 15.2247 9.20692 15.2247H10.6155C10.9032 15.2247 11.1789 15.1108 11.3887 14.907L15.4225 10.8612C15.7882 10.4896 15.7882 9.89018 15.4225 9.52456L14.6433 8.74537Z" fill="white"/>
</svg>
