<svg width="24" height="25" viewBox="0 0 24 25" fill="none" xmlns="http://www.w3.org/2000/svg">
<path d="M18.1489 9.17878L17.8489 18.259C17.8234 19.0367 17.4958 19.7738 16.9357 20.3139C16.3755 20.854 15.627 21.1545 14.8489 21.1518H9.14892C8.37134 21.1546 7.62324 20.8544 7.06321 20.315C6.50317 19.7755 6.17524 19.0392 6.14892 18.262L5.84892 9.17878C5.84236 8.97987 5.91508 8.78649 6.05109 8.6412C6.1871 8.4959 6.37526 8.41059 6.57417 8.40403C6.77308 8.39746 6.96646 8.47019 7.11175 8.6062C7.25704 8.74221 7.34236 8.93037 7.34892 9.12928L7.64892 18.2118C7.66386 18.5995 7.82847 18.9664 8.10817 19.2353C8.38787 19.5042 8.7609 19.6543 9.14892 19.654H14.8489C15.2374 19.6543 15.6109 19.5038 15.8907 19.2342C16.1705 18.9646 16.3347 18.597 16.3489 18.2088L16.6489 9.12928C16.6555 8.93037 16.7408 8.74221 16.8861 8.6062C17.0314 8.47019 17.2248 8.39746 17.4237 8.40403C17.6226 8.41059 17.8107 8.4959 17.9468 8.6412C18.0828 8.78649 18.1555 8.97987 18.1489 9.17878ZM19.1412 6.15703C19.1412 6.35594 19.0622 6.54671 18.9215 6.68736C18.7808 6.82801 18.5901 6.90703 18.3912 6.90703H5.60742C5.40851 6.90703 5.21774 6.82801 5.07709 6.68736C4.93644 6.54671 4.85742 6.35594 4.85742 6.15703C4.85742 5.95812 4.93644 5.76735 5.07709 5.6267C5.21774 5.48605 5.40851 5.40703 5.60742 5.40703H7.93242C8.17006 5.40767 8.39943 5.31987 8.57591 5.16073C8.75238 5.00158 8.86333 4.78247 8.88717 4.54603C8.94252 3.99139 9.20237 3.47723 9.61609 3.10371C10.0298 2.73019 10.5678 2.52408 11.1252 2.52553H12.8727C13.4301 2.52408 13.968 2.73019 14.3818 3.10371C14.7955 3.47723 15.0553 3.99139 15.1107 4.54603C15.1345 4.78247 15.2455 5.00158 15.4219 5.16073C15.5984 5.31987 15.8278 5.40767 16.0654 5.40703H18.3904C18.5893 5.40703 18.7801 5.48605 18.9208 5.6267C19.0614 5.76735 19.1404 5.95812 19.1404 6.15703H19.1412ZM10.1892 5.40703H13.8102C13.7116 5.18183 13.6472 4.94322 13.6189 4.69903C13.6003 4.51416 13.5138 4.34277 13.3761 4.21806C13.2383 4.09335 13.0592 4.02421 12.8734 4.02403H11.1259C10.9401 4.02421 10.761 4.09335 10.6233 4.21806C10.4855 4.34277 10.399 4.51416 10.3804 4.69903C10.3519 4.94325 10.2872 5.18188 10.1884 5.40703H10.1892ZM10.9444 16.7703V10.384C10.9444 10.1851 10.8654 9.99435 10.7248 9.8537C10.5841 9.71305 10.3933 9.63403 10.1944 9.63403C9.99551 9.63403 9.80474 9.71305 9.66409 9.8537C9.52344 9.99435 9.44442 10.1851 9.44442 10.384V16.7733C9.44442 16.9722 9.52344 17.163 9.66409 17.3036C9.80474 17.4443 9.99551 17.5233 10.1944 17.5233C10.3933 17.5233 10.5841 17.4443 10.7248 17.3036C10.8654 17.163 10.9444 16.9722 10.9444 16.7733V16.7703ZM14.5549 16.7703V10.384C14.5549 10.1851 14.4759 9.99435 14.3353 9.8537C14.1946 9.71305 14.0038 9.63403 13.8049 9.63403C13.606 9.63403 13.4152 9.71305 13.2746 9.8537C13.1339 9.99435 13.0549 10.1851 13.0549 10.384V16.7733C13.0549 16.9722 13.1339 17.163 13.2746 17.3036C13.4152 17.4443 13.606 17.5233 13.8049 17.5233C14.0038 17.5233 14.1946 17.4443 14.3353 17.3036C14.4759 17.163 14.5549 16.9722 14.5549 16.7733V16.7703Z" fill="#F33A3A"/>
</svg>
