<svg width="20" height="20" viewBox="0 0 20 20" fill="none" xmlns="http://www.w3.org/2000/svg">
<g clip-path="url(#clip0_1_514)">
<path fill-rule="evenodd" clip-rule="evenodd" d="M4.16666 1.66667C3.50362 1.66667 2.86773 1.93006 2.39889 2.3989C1.93005 2.86775 1.66666 3.50363 1.66666 4.16667V15.8333C1.66666 16.4964 1.93005 17.1323 2.39889 17.6011C2.86773 18.0699 3.50362 18.3333 4.16666 18.3333H11.6667V14.1667C11.6667 13.5036 11.93 12.8677 12.3989 12.3989C12.8677 11.9301 13.5036 11.6667 14.1667 11.6667H18.3333V4.16667C18.3333 3.50363 18.0699 2.86775 17.6011 2.3989C17.1322 1.93006 16.4964 1.66667 15.8333 1.66667H4.16666ZM14.4108 17.6008C14.1113 17.9004 13.7405 18.1189 13.3333 18.2358V14.1667C13.3333 13.9457 13.4211 13.7337 13.5774 13.5774C13.7337 13.4211 13.9456 13.3333 14.1667 13.3333H18.2358C18.1189 13.7405 17.9004 14.1113 17.6008 14.4108L14.4108 17.6008ZM5.83332 5.00001C5.61231 5.00001 5.40035 5.0878 5.24407 5.24408C5.08779 5.40036 4.99999 5.61232 4.99999 5.83334C4.99999 6.05435 5.08779 6.26631 5.24407 6.42259C5.40035 6.57887 5.61231 6.66667 5.83332 6.66667H14.1667C14.3877 6.66667 14.5996 6.57887 14.7559 6.42259C14.9122 6.26631 15 6.05435 15 5.83334C15 5.61232 14.9122 5.40036 14.7559 5.24408C14.5996 5.0878 14.3877 5.00001 14.1667 5.00001H5.83332ZM5.83332 8.33334C5.61231 8.33334 5.40035 8.42114 5.24407 8.57742C5.08779 8.7337 4.99999 8.94566 4.99999 9.16667C4.99999 9.38769 5.08779 9.59965 5.24407 9.75593C5.40035 9.91221 5.61231 10 5.83332 10H14.1667C14.3877 10 14.5996 9.91221 14.7559 9.75593C14.9122 9.59965 15 9.38769 15 9.16667C15 8.94566 14.9122 8.7337 14.7559 8.57742C14.5996 8.42114 14.3877 8.33334 14.1667 8.33334H5.83332ZM5.83332 11.6667C5.61231 11.6667 5.40035 11.7545 5.24407 11.9107C5.08779 12.067 4.99999 12.279 4.99999 12.5C4.99999 12.721 5.08779 12.933 5.24407 13.0893C5.40035 13.2455 5.61231 13.3333 5.83332 13.3333H9.16666C9.38767 13.3333 9.59963 13.2455 9.75591 13.0893C9.91219 12.933 9.99999 12.721 9.99999 12.5C9.99999 12.279 9.91219 12.067 9.75591 11.9107C9.59963 11.7545 9.38767 11.6667 9.16666 11.6667H5.83332Z" fill="#939393"/>
</g>
<defs>
<clipPath id="clip0_1_514">
<rect width="20" height="20" fill="white"/>
</clipPath>
</defs>
</svg>
